<svg xmlns="http://www.w3.org/2000/svg" viewBox="0 0 1200 630" width="1200" height="630">
  <defs>
    <linearGradient id="bgGrad" x1="0" y1="0" x2="0" y2="1">
      <stop offset="0%" stop-color="#090E1A"/>
      <stop offset="100%" stop-color="#0D1526"/>
    </linearGradient>
    <linearGradient id="goldGrad" x1="0" y1="0" x2="1" y2="0">
      <stop offset="0%" stop-color="#c8952c"/>
      <stop offset="50%" stop-color="#d4af37"/>
      <stop offset="100%" stop-color="#f4cd5d"/>
    </linearGradient>
    <radialGradient id="glowRight" cx="85%" cy="40%" r="40%">
      <stop offset="0%" stop-color="#d4af37" stop-opacity="0.08"/>
      <stop offset="100%" stop-color="#090E1A" stop-opacity="0"/>
    </radialGradient>
  </defs>

  <rect width="1200" height="630" fill="url(#bgGrad)"/>
  <rect width="1200" height="630" fill="url(#glowRight)"/>

  <g stroke="#4B9EFF" stroke-width="0.5" opacity="0.06">
    <line x1="0" y1="210" x2="1200" y2="210"/>
    <line x1="0" y1="420" x2="1200" y2="420"/>
    <line x1="400" y1="0" x2="400" y2="630"/>
    <line x1="800" y1="0" x2="800" y2="630"/>
  </g>

  <rect x="0" y="0" width="1200" height="4" fill="url(#goldGrad)"/>
  <rect x="64" y="80" width="3" height="470" fill="url(#goldGrad)" opacity="0.7"/>

  <g transform="translate(96, 68)">
    <circle cx="28" cy="28" r="28" fill="rgba(11,17,32,0.8)" stroke="#4B9EFF" stroke-width="1.5"/>
    <path d="M8,28 L14,28 L18,40 L26,14 L33,40 L38,28 L44,28"
          stroke="#4B9EFF" stroke-width="3" fill="none"
          stroke-linecap="round" stroke-linejoin="round"/>
    <circle cx="44" cy="28" r="3.5" fill="#4B9EFF"/>
  </g>

  <text x="148" y="108"
        font-family="Inter, system-ui, -apple-system, sans-serif"
        font-size="28" font-weight="700" fill="#FFFFFF"
        letter-spacing="0.5" opacity="0.9">BeatScanner</text>

  <rect x="96" y="168" width="160" height="52" rx="6"
        fill="rgba(212,175,55,0.12)" stroke="url(#goldGrad)" stroke-width="1.5"/>
  <text id="ticker-text" x="176" y="203"
        font-family="Inter, system-ui, sans-serif"
        font-size="32" font-weight="700" fill="#d4af37"
        text-anchor="middle" letter-spacing="2">{{TICKER}}</text>

  <text id="headline-line1" x="96" y="300"
        font-family="Georgia, serif"
        font-size="52" font-weight="700" fill="#FFFFFF"
        letter-spacing="-0.5">{{HEADLINE_L1}}</text>
  <text id="headline-line2" x="96" y="366"
        font-family="Georgia, serif"
        font-size="52" font-weight="700" fill="#FFFFFF"
        letter-spacing="-0.5" opacity="0.88">{{HEADLINE_L2}}</text>

  <rect id="verdict-bg" x="96" y="420" width="140" height="44" rx="22"
        fill="rgba(52,239,129,0.15)" stroke="rgba(52,239,129,0.5)" stroke-width="1.5"/>
  <text id="verdict-text" x="166" y="450"
        font-family="Inter, system-ui, sans-serif"
        font-size="22" font-weight="700" fill="#34EF81"
        text-anchor="middle" letter-spacing="1">{{VERDICT}}</text>

  <text id="date-text" x="96" y="510"
        font-family="Inter, system-ui, sans-serif"
        font-size="22" font-weight="500" fill="#94A3B8"
        letter-spacing="0.3">{{DATE}}</text>

  <g opacity="0.15" transform="translate(900, 250)">
    <line x1="20" y1="0" x2="20" y2="220" stroke="#34EF81" stroke-width="1.5"/>
    <rect x="8" y="60" width="24" height="100" fill="#34EF81" rx="2"/>
    <line x1="70" y1="20" x2="70" y2="230" stroke="#F87171" stroke-width="1.5"/>
    <rect x="58" y="50" width="24" height="120" fill="#F87171" rx="2"/>
    <line x1="120" y1="10" x2="120" y2="200" stroke="#34EF81" stroke-width="1.5"/>
    <rect x="108" y="40" width="24" height="130" fill="#34EF81" rx="2"/>
    <line x1="170" y1="0" x2="170" y2="210" stroke="#34EF81" stroke-width="1.5"/>
    <rect x="158" y="20" width="24" height="160" fill="#34EF81" rx="2"/>
    <line x1="220" y1="30" x2="220" y2="220" stroke="#34EF81" stroke-width="1.5"/>
    <rect x="208" y="50" width="24" height="140" fill="#34EF81" rx="2"/>
  </g>

  <rect x="64" y="560" width="1072" height="1" fill="url(#goldGrad)" opacity="0.4"/>

  <text x="96" y="600"
        font-family="Inter, system-ui, sans-serif"
        font-size="20" font-weight="500" fill="#4B9EFF"
        letter-spacing="0.3" opacity="0.8">beatscanner-production.up.railway.app</text>

  <text x="1104" y="600"
        font-family="Inter, system-ui, sans-serif"
        font-size="18" font-weight="500" fill="#94A3B8"
        text-anchor="end" letter-spacing="0.3">決算分析レポート</text>
</svg>
